<?xml version="1.0" encoding="utf-8"?>
<!-- Generator: Adobe Illustrator 27.5.0, SVG Export Plug-In . SVG Version: 6.00 Build 0)  -->
<svg xmlns="http://www.w3.org/2000/svg" xmlns:xlink="http://www.w3.org/1999/xlink" version="1.1" id="Layer_1" x="0px" y="0px" viewBox="0 0 2000 2000" style="enable-;background-color:transparent;" xml:space="preserve">
<g>
	<rect style="fill:none;" width="2000" height="2000" fill="none"/>
	<g>
		<g>
			<path style="fill:#DCF4FF;" d="M1637.879,1353.065c-287.872,303.866-720.011,403.062-1092.097,230.84     c-128.116-59.299-415.361-368.735-409.254-600.239c0.116-4.396,0.264-8.828,0.444-13.295     c18.172-450.14,294.869-683.525,435.412-763.36c192.94-109.599,473.901-56.58,571.538,118.11     c63.484,113.584,139.735,110.385,209.305,114.662c69.595,4.279,435.455,65.997,495.723,327.19     C1904.948,1009.66,1792.672,1189.672,1637.879,1353.065z"/>
		</g>
	</g>
	<g>
		<g>
			<g>
				<g>
					<g>
						<path style="fill:none;" d="M450.997,991.29c-28.1-1.609-93.973-4.418-151.239,0.412        c-23.692,1.998-44.147-16.928-43.615-40.698c0.218-9.729,3.707-21.047,12.737-33.872c34.77-49.381,95.208-2.222,94.628,22.845        c0,0,12.218-37.744,49.329-31.137c37.111,6.608,23.987,61.5,23.987,61.5s11.975-2.53,20.277,3.136        C465.265,979.049,460.864,991.855,450.997,991.29z"/>
					</g>
				</g>
			</g>
		</g>
	</g>
	<g>
		<g>
			<g>
				<g>
					<g>
						<g>
							<path style="fill:#3F9896;" d="M878.216,720.294c0,0-60.185-99.506-204.575-73.702         C673.642,646.592,770.845,790.746,878.216,720.294z"/>
						</g>
					</g>
				</g>
			</g>
		</g>
	</g>
	<g>
		<g>
			<g>
				<g>
					<g>
						<path style="fill:none;" d="M773.015,408.271c30.261-1.597,133.965-5.971,204.881,4.543        c9.199,1.364,15.057-9.66,8.694-16.441c-3.722-3.966-10.07-7.196-20.748-7.944c0,0,3.677-66.204-46.331-70.589        c-57.354-5.03-58.049,60.013-58.049,60.013s-26.068-24.748-44.87,6.628c0,0-32.493-18.78-48.882,15.906        C765.922,404.169,768.837,408.491,773.015,408.271z"/>
					</g>
				</g>
			</g>
		</g>
	</g>
	<g>
		<g>
			<g>
				<g>
					<g>
						<g>
							<g>
								<path style="fill:#448A7A;" d="M723.487,681.22c0,0-66.617-110.139-226.435-81.578          C497.051,599.642,604.642,759.2,723.487,681.22z"/>
							</g>
						</g>
					</g>
				</g>
			</g>
		</g>
		<g>
			<g>
				<g>
					<g>
						<g>
							<g>
								<path style="fill:#76C68B;" d="M827.517,710.294c0,0-19.844-220.776-288.734-297.365          C538.783,412.929,584.682,741.143,827.517,710.294z"/>
							</g>
						</g>
					</g>
				</g>
			</g>
		</g>
	</g>
	<g>
		<path style="fill:#FE9F73;" d="M883.971,1320.44c-34.616-17.119-179.57,38.517-216.349,49.216    c-23.393,6.805-112.222,30.887-173.784,47.515l-3.806-4.857l-47.554,18.71c-6.469,1.742-10.167,2.737-10.167,2.737l0.937,0.895    l-0.937,0.369l-55.839,219.219c-12.653,49.675,10.795,101.464,56.448,124.778c38.355,19.588,154.897,59.739,203.305,75.088    c49.661,15.746,102.958-5.934,128.22-50.048c0.003-0.004,178.605-202.533,196.82-215.746    c32.452-23.538,83.27-137.354,83.27-137.354S918.586,1337.558,883.971,1320.44z"/>
	</g>
	<g>
		<path style="fill:#010103;" d="M765.39,1806.428c-0.564,0-1.131-0.201-1.582-0.608c-0.971-0.875-1.048-2.37-0.174-3.341    l189.724-210.541c0.875-0.97,2.371-1.049,3.341-0.174c0.971,0.875,1.048,2.37,0.174,3.341l-189.724,210.541    C766.681,1806.165,766.037,1806.428,765.39,1806.428z"/>
	</g>
	<g>
		<g>
			<path style="fill:#FC8759;" d="M1149.297,864.301c0,0,65.868-18.71,83.64,31.675c17.771,50.385-42.119,86.284-60.648,91.246     C1153.759,992.185,1149.297,864.301,1149.297,864.301z"/>
		</g>
	</g>
	<g>
		<g>
			<path style="fill:#FC8759;" d="M1149.297,976.744c0,0,65.868-18.71,83.64,31.675c17.771,50.385-42.119,86.283-60.648,91.246     C1153.759,1104.628,1149.297,976.744,1149.297,976.744z"/>
		</g>
	</g>
	<g>
		<g>
			<path style="fill:#FC8759;" d="M1129.74,1076.253c0,0,65.868-18.71,83.64,31.675s-42.119,86.283-60.648,91.246     C1134.203,1204.137,1129.74,1076.253,1129.74,1076.253z"/>
		</g>
	</g>
	<g>
		<g>
			<g>
				<path style="fill:#223749;" d="M1160.723,1570.017H702.069c-10.405,0-18.839-8.435-18.839-18.839V606.377      c0-11.931,9.672-21.604,21.604-21.604h453.125c11.931,0,21.604,9.672,21.604,21.604v944.801      C1179.562,1561.583,1171.127,1570.017,1160.723,1570.017z"/>
			</g>
		</g>
	</g>
	<path style="fill:#DCF4FF;" d="M1082.102,710.525H780.689c-33.982,0-61.529,27.547-61.529,61.529   c0,33.982,27.547,61.529,61.529,61.529h301.413c33.981,0,61.529-27.547,61.529-61.529   C1143.631,738.072,1116.083,710.525,1082.102,710.525z"/>
	<path style="fill:#DCF4FF;" d="M1082.102,907.051H780.689c-33.982,0-61.529,27.547-61.529,61.529   c0,33.982,27.547,61.529,61.529,61.529h301.413c33.981,0,61.529-27.547,61.529-61.529   C1143.631,934.598,1116.083,907.051,1082.102,907.051z"/>
	<g>
		<path style="fill:#CDECE7;" d="M832.047,968.579c0,12.921-4.978,24.679-13.118,33.461c-0.115,0.123-0.231,0.245-0.346,0.365    c-0.123,0.132-0.245,0.26-0.373,0.389c-8.946,9.253-21.492,15.007-35.384,15.007c-7.593,0-14.784-1.719-21.206-4.788    c-6.028-2.884-11.378-6.958-15.745-11.916c-1.021-1.159-1.988-2.363-2.896-3.615c-5.896-8.117-9.373-18.103-9.373-28.904    c0-27.183,22.037-49.221,49.221-49.221C810.012,919.358,832.047,941.395,832.047,968.579z"/>
		<g>
			<g>
				<g>
					<g>
						<g>
							<path style="fill:#F85772;" d="M772.831,991.532c0,0-0.37,0.704-1.017,1.944c-0.238,0.452-0.512,0.973-0.817,1.56         c-1.043,1.995-2.466,4.718-4.096,7.84c-0.139,0.269-0.281,0.541-0.425,0.817c-1.507,2.887-3.168,6.076-4.855,9.321         c-6.028-2.884-11.378-6.958-15.745-11.916c-1.021-1.159-1.988-2.363-2.896-3.615c0.615-0.598,1.279-1.106,1.995-1.512         c7.271-4.117,20.968-4.48,25.967-4.468C772.131,991.505,772.831,991.532,772.831,991.532z"/>
						</g>
					</g>
				</g>
			</g>
			<g>
				<g>
					<g>
						<g>
							<path style="fill:#F85772;" d="M745.876,1001.098c2.312-3.353,5.172-5.672,8.703-6.163         c3.872-0.536,10.037-1.014,16.334-1.404c0.298-0.019,0.601-0.036,0.901-0.055c8.955-0.541,17.964-0.906,20.826-1.014         c0.603-0.024,0.932-0.036,0.932-0.036s0.082,0.021,0.216,0.055c0.779,0.202,3.353,0.846,2.336,0.375         c10.135,1.791,17.344,5.437,22.458,9.549c-0.123,0.132-0.245,0.26-0.373,0.389c-8.946,9.253-21.492,15.007-35.384,15.007         c-7.593,0-14.784-1.719-21.206-4.788C755.593,1010.13,750.243,1006.056,745.876,1001.098z"/>
						</g>
					</g>
				</g>
			</g>
			<g>
				<g>
					<g>
						<g>
							<g>
								<g>
									<path style="fill:#0D060E;" d="M783.547,1012.036c0.401,0.042,0.81,0.077,1.226,0.106c0.237,0.017,0.444-0.162,0.46-0.4           c0.017-0.237-0.155-0.441-0.4-0.46c-17.868-1.254-21.186-14.335-21.211-14.466c-0.044-0.23-0.264-0.39-0.496-0.349           c-0.231,0.039-0.39,0.249-0.357,0.481C762.789,997.082,766.087,1010.229,783.547,1012.036z"/>
								</g>
							</g>
						</g>
					</g>
				</g>
			</g>
			<g>
				<g>
					<g>
						<g>
							<g>
								<g>
									<path style="fill:#0D060E;" d="M793.71,991.948c11.734,1.644,19.776,5.723,25.219,10.092           c-0.115,0.123-0.231,0.245-0.346,0.365c-0.123,0.132-0.245,0.26-0.373,0.389c-5.268-4.208-13.034-8.145-24.342-9.775           c-0.26-0.038-0.521-0.074-0.784-0.11c-0.238-0.034-0.418-0.221-0.445-0.447c-0.007-0.043-0.007-0.089-0.002-0.135           c0.038-0.284,0.3-0.483,0.584-0.447C793.385,991.902,793.549,991.924,793.71,991.948z"/>
								</g>
							</g>
						</g>
					</g>
				</g>
			</g>
			<g>
				<g>
					<g>
						<g>
							<g>
								<g>
									<g>
										<g>
											<g>
												<path style="fill:#FC8759;" d="M797.839,953.513l0.586,22.578c0,0,0.491,7.25-5.836,8.322l1.437,9.653              c0.534,3.588-1.529,7.09-4.958,8.274c-1.677,0.579-3.684,1.022-5.973,1.082c-7.258,0.188-11.331-5.153-12.006-7.859              c-0.675-2.706,0.802-15.757,0.802-15.757l-0.387-6.384l0.183-24.781L797.839,953.513z"/>
											</g>
										</g>
									</g>
								</g>
							</g>
						</g>
					</g>
				</g>
				<g>
					<g>
						<g>
							<g>
								<g>
									<g>
										<g>
											<g>
												<path style="fill:#FB554B;" d="M777.704,978.629c0,0,0.741,12.137,15.943,12.904l-1.06-7.12              C792.588,984.413,782.799,986.645,777.704,978.629z"/>
											</g>
										</g>
									</g>
								</g>
							</g>
						</g>
					</g>
				</g>
				<g>
					<g>
						<g>
							<g>
								<g>
									<g>
										<g>
											<g>
												<path style="fill:#2D0F28;" d="M780.622,965.809c-0.075,0.002-0.152-0.024-0.212-0.079              c-0.123-0.112-0.132-0.304-0.02-0.427c0.041-0.045,4.09-4.407,7.97-1.443c0.133,0.101,0.158,0.291,0.057,0.424              c-0.101,0.133-0.291,0.159-0.424,0.057c-3.438-2.626-7.005,1.206-7.156,1.37              C780.78,965.774,780.701,965.807,780.622,965.809z"/>
											</g>
										</g>
									</g>
								</g>
							</g>
						</g>
					</g>
				</g>
				<g>
					<g>
						<g>
							<g>
								<g>
									<g>
										<path style="fill:#2F0E1B;" d="M770.117,962.906l6.562,1.189l1.211,1.192c0,0-0.849-10.927-2.134-13.047            C774.472,950.121,770.117,962.906,770.117,962.906z"/>
									</g>
								</g>
							</g>
						</g>
					</g>
				</g>
				<g>
					<g>
						<g>
							<g>
								<g>
									<g>
										<g>
											<g>
												<path style="fill:#2D0F28;" d="M793.042,963.671c-0.085,0.002-0.17-0.031-0.232-0.099              c-0.112-0.123-0.104-0.314,0.019-0.427c0.119-0.109,2.94-2.651,4.804-1.134c0.13,0.105,0.149,0.296,0.044,0.425              c-0.105,0.13-0.296,0.15-0.426,0.044c-1.461-1.188-3.989,1.089-4.015,1.112              C793.182,963.643,793.112,963.669,793.042,963.671z"/>
											</g>
										</g>
									</g>
								</g>
							</g>
						</g>
					</g>
				</g>
				<g>
					<g>
						<g>
							<g>
								<g>
									<g>
										<g>
											<g>
												<path style="fill:#010103;" d="M786.769,966.873c0.013,0.501-0.383,0.918-0.884,0.931              c-0.501,0.013-0.918-0.383-0.931-0.884c-0.013-0.501,0.383-0.918,0.884-0.931              C786.34,965.976,786.756,966.372,786.769,966.873z"/>
											</g>
										</g>
									</g>
								</g>
							</g>
						</g>
					</g>
				</g>
				<g>
					<g>
						<g>
							<g>
								<g>
									<g>
										<g>
											<g>
												<path style="fill:#010103;" d="M796.39,965.715c0.013,0.501-0.383,0.918-0.884,0.931              c-0.501,0.013-0.918-0.383-0.931-0.884c-0.013-0.501,0.383-0.918,0.884-0.931              C795.96,964.818,796.377,965.214,796.39,965.715z"/>
											</g>
										</g>
									</g>
								</g>
							</g>
						</g>
					</g>
				</g>
				<g>
					<g>
						<g>
							<g>
								<g>
									<g>
										<g>
											<g>
												<path style="fill:#FC8759;" d="M779.268,966.752c0.078,3.006-2.296,5.507-5.302,5.585              c-3.006,0.078-5.507-2.296-5.585-5.302s2.296-5.507,5.302-5.585C776.689,961.372,779.19,963.745,779.268,966.752z"/>
											</g>
										</g>
									</g>
								</g>
							</g>
						</g>
					</g>
				</g>
				<g>
					<g>
						<g>
							<g>
								<g>
									<g>
										<g>
											<g>
												<path style="fill:#FB554B;" d="M772.95,969.94c-1.131,0.029-1.908-0.801-2.179-1.644              c-0.32-0.997-0.008-1.982,0.794-2.51c1.186-0.78,2.291-0.328,2.861,0.026c-0.251-0.612-0.631-1.052-1.134-1.312              c-1.088-0.563-2.407-0.098-2.42-0.093c-0.078,0.029-0.165-0.012-0.194-0.091c-0.028-0.078,0.012-0.165,0.09-0.194              c0.059-0.021,1.453-0.514,2.66,0.108c0.697,0.359,1.181,1.014,1.44,1.947l0.145,0.523l-0.395-0.373              c-0.056-0.053-1.383-1.278-2.888-0.289c-0.833,0.548-0.883,1.508-0.672,2.164c0.219,0.681,0.842,1.461,1.882,1.434              c0.01,0,0.02-0.001,0.031-0.001c0.083-0.002,0.152,0.062,0.155,0.145c0.003,0.083-0.062,0.154-0.145,0.157              C772.971,969.939,772.961,969.939,772.95,969.94z"/>
											</g>
										</g>
									</g>
								</g>
							</g>
						</g>
					</g>
				</g>
				<g>
					<g>
						<g>
							<g>
								<g>
									<g>
										<g>
											<g>
												<path style="fill:#FB554B;" d="M790.128,972.909c-0.063,0.002-0.123-0.037-0.146-0.1              c-0.028-0.079,0.012-0.165,0.091-0.193l3.005-1.081l-1.143-7.109c-0.013-0.083,0.043-0.16,0.125-0.173              c0.083-0.016,0.16,0.043,0.173,0.125l1.183,7.357l-3.241,1.166C790.16,972.906,790.144,972.909,790.128,972.909z"/>
											</g>
										</g>
									</g>
								</g>
							</g>
						</g>
					</g>
				</g>
				<g>
					<g>
						<g>
							<g>
								<g>
									<g>
										<g>
											<g>
												<path style="fill:#FBFDFA;" d="M787.857,975.916c0.093-0.021,5.984-0.311,5.984-0.311s-0.677,2.457-2.866,2.571              C788.785,978.289,787.857,975.916,787.857,975.916z"/>
											</g>
										</g>
									</g>
								</g>
							</g>
						</g>
					</g>
				</g>
				<g>
					<g>
						<g>
							<g>
								<g>
									<g>
										<path style="fill:#2F0E1B;" d="M770.117,962.906c0,0-2.113-10.552,1.03-14.587c3.143-4.035,21.589-11.432,23.898-9.515            c2.309,1.917,0.113,4.374,0.113,4.374s7.416-2.593,9.282,3.995c1.865,6.588-14.147,9.827-23.823,6.972            C780.617,954.145,774.319,956.161,770.117,962.906z"/>
									</g>
								</g>
							</g>
						</g>
					</g>
				</g>
			</g>
		</g>
	</g>
	<path style="fill:#DCF4FF;" d="M1082.102,1103.577H780.689c-33.982,0-61.529,27.547-61.529,61.529s27.547,61.529,61.529,61.529   h301.413c33.981,0,61.529-27.547,61.529-61.529S1116.083,1103.577,1082.102,1103.577z"/>
	<path style="fill:#DCF4FF;" d="M1082.102,1300.804H780.689c-33.982,0-61.529,27.547-61.529,61.529s27.547,61.529,61.529,61.529   h301.413c33.981,0,61.529-27.547,61.529-61.529S1116.083,1300.804,1082.102,1300.804z"/>
	<g style="opacity:0.3;">
		<g>
			<g>
				<g>
					<g>
						<rect x="848.727" y="744.644" style="fill:#223749;" width="262.065" height="5.001"/>
					</g>
				</g>
			</g>
			<g>
				<g>
					<g>
						<rect x="848.727" y="760.797" style="fill:#223749;" width="262.065" height="5.001"/>
					</g>
				</g>
			</g>
			<rect x="848.727" y="776.95" style="fill:#223749;" width="262.065" height="5.001"/>
			<rect x="848.727" y="793.102" style="fill:#223749;" width="262.065" height="5.001"/>
		</g>
		<g>
			<g>
				<g>
					<g>
						<rect x="848.727" y="941.17" style="fill:#223749;" width="262.065" height="5.001"/>
					</g>
				</g>
			</g>
			<g>
				<g>
					<g>
						<rect x="848.727" y="957.323" style="fill:#223749;" width="262.065" height="5.001"/>
					</g>
				</g>
			</g>
			<g>
				<g>
					<g>
						<rect x="848.727" y="973.476" style="fill:#223749;" width="262.065" height="5.001"/>
					</g>
				</g>
			</g>
			<g>
				<g>
					<g>
						<rect x="848.727" y="989.629" style="fill:#223749;" width="262.065" height="5.001"/>
					</g>
				</g>
			</g>
		</g>
		<g>
			<g>
				<g>
					<g>
						<rect x="848.727" y="1137.697" style="fill:#223749;" width="262.065" height="5.001"/>
					</g>
				</g>
			</g>
			<g>
				<g>
					<g>
						<rect x="848.727" y="1153.849" style="fill:#223749;" width="262.065" height="5.001"/>
					</g>
				</g>
			</g>
			<g>
				<g>
					<g>
						<rect x="848.727" y="1170.002" style="fill:#223749;" width="262.065" height="5.001"/>
					</g>
				</g>
			</g>
			<g>
				<g>
					<g>
						<rect x="848.727" y="1186.155" style="fill:#223749;" width="262.065" height="5.001"/>
					</g>
				</g>
			</g>
		</g>
		<g>
			<g>
				<g>
					<g>
						<rect x="848.727" y="1334.924" style="fill:#223749;" width="262.065" height="5.001"/>
					</g>
				</g>
			</g>
			<g>
				<g>
					<g>
						<rect x="848.727" y="1351.077" style="fill:#223749;" width="262.065" height="5.001"/>
					</g>
				</g>
			</g>
			<g>
				<g>
					<g>
						<rect x="848.727" y="1367.23" style="fill:#223749;" width="262.065" height="5.001"/>
					</g>
				</g>
			</g>
			<g>
				<g>
					<g>
						<rect x="848.727" y="1383.382" style="fill:#223749;" width="262.065" height="5.001"/>
					</g>
				</g>
			</g>
		</g>
	</g>
	<g>
		<path style="fill:#FEC369;" d="M829.534,1164.536c0,11.616-4.023,22.292-10.755,30.712c-7.751,9.696-19.091,16.397-32.007,18.086    c-2.113,0.281-4.268,0.423-6.458,0.423c-0.127,0-0.257,0-0.385-0.003c-1.988-0.014-3.949-0.147-5.874-0.394    c-0.519-0.063-1.034-0.137-1.545-0.219c-12.635-2.012-23.664-8.833-31.159-18.523c-6.434-8.318-10.26-18.754-10.26-30.082    c0-27.186,22.038-49.223,49.223-49.223C807.496,1115.313,829.534,1137.351,829.534,1164.536z"/>
		<g>
			<g>
				<g>
					<g>
						<g>
							<path style="fill:#F32527;" d="M771.025,1159.717c0,0,2.105,18.916,4.93,19.105c2.825,0.189-1.95,22.342-9.438,11.489         c-2.623-3.802-2.506-28.688,3.754-34.01C776.532,1150.979,771.025,1159.717,771.025,1159.717z"/>
						</g>
					</g>
				</g>
				<g>
					<g>
						<g>
							<g>
								<path style="fill:#FCA085;" d="M769.999,1154.968c0,0-2.6,17.87-0.259,21.051c0,0,1.144,1.691,3.934,1.782l-0.219,10.502          l12.627-1.444l0.422-29.869c0,0-3.599-7.384-3.603-7.08C782.896,1150.214,769.999,1154.968,769.999,1154.968z"/>
							</g>
						</g>
					</g>
				</g>
				<g>
					<g>
						<g>
							<g>
								<path style="fill:#FB554B;" d="M773.844,1169.879c0.037,0.001,0.072-0.035,0.08-0.089c0.01-0.061-0.017-0.122-0.06-0.137          c-0.52-0.165-0.836-1.075-0.926-1.372c0.749-0.547,1.211-1.266,1.375-2.138c0.266-1.421-0.356-2.718-0.383-2.772          c-0.025-0.052-0.076-0.064-0.112-0.028c-0.037,0.036-0.047,0.107-0.021,0.159c0.006,0.013,0.607,1.269,0.36,2.587          c-0.156,0.83-0.612,1.515-1.356,2.036l-0.065,0.046l0.025,0.096c0.015,0.056,0.364,1.385,1.068,1.609          C773.833,1169.878,773.839,1169.879,773.844,1169.879z"/>
							</g>
						</g>
					</g>
				</g>
				<g>
					<g>
						<g>
							<g>
								<path style="fill:#FB554B;" d="M773.624,1181.372l0.05-3.572c0,0,6.044-0.27,9.782-2.552          C783.457,1175.248,778.36,1180.012,773.624,1181.372z"/>
							</g>
						</g>
					</g>
				</g>
				<g>
					<g>
						<g>
							<g>
								<path style="fill:#F32527;" d="M782.197,1163.955c0.057,0.001,0.114-0.02,0.159-0.062c0.092-0.086,0.097-0.23,0.011-0.323          c-0.029-0.03-2.913-3.066-5.62-0.947c-0.099,0.078-0.117,0.221-0.039,0.32c0.078,0.099,0.221,0.117,0.321,0.039          c2.376-1.858,4.899,0.786,5.005,0.9C782.077,1163.93,782.137,1163.954,782.197,1163.955z"/>
							</g>
						</g>
					</g>
				</g>
				<g>
					<g>
						<g>
							<g>
								<path style="fill:#F32527;" d="M772.803,1163.344c0.064,0.001,0.128-0.025,0.174-0.076c0.084-0.094,0.076-0.238-0.018-0.322          c-0.085-0.075-2.094-1.844-3.398-0.756c-0.097,0.081-0.11,0.225-0.029,0.321c0.081,0.097,0.225,0.111,0.322,0.029          c1.003-0.835,2.784,0.73,2.802,0.746C772.697,1163.325,772.75,1163.344,772.803,1163.344z"/>
							</g>
						</g>
					</g>
				</g>
				<g>
					<g>
						<g>
							<g>
								<path style="fill:#010103;" d="M777.612,1165.163c-0.005,0.351,0.276,0.64,0.627,0.645c0.351,0.005,0.64-0.276,0.645-0.627          s-0.276-0.64-0.627-0.645C777.905,1164.531,777.617,1164.812,777.612,1165.163z"/>
							</g>
						</g>
					</g>
				</g>
				<g>
					<g>
						<g>
							<g>
								<path style="fill:#010103;" d="M770.165,1165.078c-0.005,0.351,0.276,0.64,0.627,0.645c0.351,0.005,0.64-0.276,0.645-0.627          c0.005-0.351-0.276-0.64-0.627-0.645C770.458,1164.446,770.17,1164.727,770.165,1165.078z"/>
							</g>
						</g>
					</g>
				</g>
				<g>
					<g>
						<g>
							<g>
								<path style="fill:#FBFDFA;" d="M776.978,1170.939c-0.071-0.004-4.497,0.489-4.497,0.489s0.8,1.75,2.446,1.571          C776.573,1172.82,776.978,1170.939,776.978,1170.939z"/>
							</g>
						</g>
					</g>
				</g>
				<g>
					<g>
						<g>
							<path style="fill:#FC8759;" d="M775.474,1155.315l3.066-4.254c0,0-4.927,3.082-4.517,3.209         C774.432,1154.398,775.474,1155.315,775.474,1155.315z"/>
						</g>
					</g>
				</g>
				<g>
					<g>
						<g>
							<path style="fill:#F32527;" d="M784.673,1153.299c0,0-0.88,6.664-16.843,8.009c0,0-3.709-9.861,7.883-13.158         c11.592-3.297,12.645,5.594,12.41,5.512C787.889,1153.58,784.673,1153.299,784.673,1153.299z"/>
						</g>
					</g>
				</g>
				<g>
					<g>
						<g>
							<path style="fill:#F32527;" d="M782.264,1157.035c0,0,2.55,4.391,3.919,7.552c0,0-4.931,27.906,5.816,26.342l1.921-0.026         c9.505-0.13,2.926-20.703,2.765-31.622c-0.101-6.836-8.4-13.777-13.8-9.612         C777.484,1153.834,782.264,1157.035,782.264,1157.035z"/>
						</g>
					</g>
				</g>
				<g>
					<g>
						<g>
							<g>
								<g>
									<path style="fill:#FCA085;" d="M783.85,1167.994c-0.028,1.97,1.546,3.589,3.516,3.617c1.97,0.028,3.589-1.546,3.617-3.516           c0.028-1.97-1.546-3.589-3.516-3.617S783.878,1166.025,783.85,1167.994z"/>
								</g>
							</g>
						</g>
					</g>
					<g>
						<g>
							<g>
								<g>
									<path style="fill:#FB554B;" d="M787.649,1170.249c0.749,0.01,1.257-0.545,1.429-1.104c0.204-0.662-0.01-1.312-0.546-1.655           c-0.763-0.488-1.466-0.219-1.85,0.014c0.159-0.377,0.396-0.652,0.709-0.818c0.704-0.374,1.562-0.081,1.571-0.078           c0.06,0.021,0.125-0.011,0.145-0.07c0.021-0.06-0.011-0.125-0.07-0.146c-0.039-0.014-0.962-0.328-1.753,0.092           c-0.457,0.243-0.772,0.679-0.936,1.296l-0.105,0.396l0.295-0.285c0.036-0.035,0.888-0.839,1.871-0.21           c0.543,0.348,0.582,0.969,0.451,1.395c-0.138,0.447-0.541,0.96-1.226,0.943c-0.062-0.002-0.116,0.048-0.117,0.111           c-0.002,0.063,0.048,0.116,0.111,0.117C787.635,1170.249,787.642,1170.249,787.649,1170.249z"/>
								</g>
							</g>
						</g>
					</g>
				</g>
				<g>
					<g>
						<path style="fill:#F32527;" d="M769.285,1151.947c0,0-5.535,5.841-4.265,22.641l3.815-16.574L769.285,1151.947z"/>
					</g>
				</g>
			</g>
			<g>
				<g>
					<path style="fill:#5AB3BF;" d="M786.771,1213.334c-2.113,0.281-4.268,0.423-6.458,0.423c-0.127,0-0.257,0-0.385-0.003       c-1.988-0.014-3.949-0.147-5.874-0.394l0.284-1.199l4.398-18.473l1.192-5.004l0.274-1.154l0.481-2.016h20.958       c2.226,0,5.29,1.466,5.422,1.531c2.846,1.514,7.218,4.41,11.714,8.203C811.027,1204.944,799.687,1211.645,786.771,1213.334z"/>
				</g>
				<g>
					<path style="fill:#5AB3BF;" d="M779.928,1185.514v28.241c-1.988-0.014-3.949-0.147-5.874-0.394       c-0.519-0.063-1.034-0.137-1.545-0.219c-12.635-2.012-23.664-8.833-31.159-18.523c4.74-3.425,9.323-6.042,12.198-7.573       c0.13-0.065,3.197-1.531,5.42-1.531H779.928z"/>
				</g>
				<g>
					<g>
						<g>
							<g>
								<path style="fill:#5AB3BF;" d="M774.054,1213.361c-0.519-0.063-1.034-0.137-1.545-0.219          c0.647-0.348,1.259-0.675,1.829-0.981c2.536-1.348,4.223-2.214,4.37-2.214c0.077,0,0.509,0.161,1.221,0.452          c1.399,0.57,3.877,1.634,6.843,2.935c-2.113,0.281-4.268,0.423-6.458,0.423c-0.127,0-0.257,0-0.385-0.003          C777.941,1213.74,775.979,1213.608,774.054,1213.361z"/>
							</g>
						</g>
					</g>
				</g>
				<g>
					<g>
						<g>
							<g>
								<path style="fill:#FCA085;" d="M767.789,1185.513h26.514c0,0-4.793,8.3-13.955,8.265          C776.146,1193.761,771.653,1192.216,767.789,1185.513z"/>
							</g>
						</g>
					</g>
				</g>
				<g>
					<g>
						<g>
							<g>
								<g>
									<path style="fill:#0D060E;" d="M749.539,1196.052c0.125,0,0.248-0.059,0.325-0.169c2.98-4.281,5.523-4.29,5.522-4.29           c0,0,0.001,0,0.002,0c0.218,0,0.394-0.176,0.395-0.394c0.001-0.218-0.175-0.396-0.394-0.397c-0.001,0-0.001,0-0.002,0           c-0.145,0-2.992,0.062-6.172,4.628c-0.124,0.179-0.081,0.426,0.099,0.551           C749.382,1196.029,749.461,1196.052,749.539,1196.052z"/>
								</g>
							</g>
						</g>
					</g>
					<g>
						<g>
							<g>
								<g>
									<path style="fill:#0D060E;" d="M750.387,1200.072c0.145,0,0.285-0.08,0.354-0.219c2.283-4.592,4.813-5.048,4.838-5.052           c0.214-0.035,0.362-0.235,0.33-0.45c-0.033-0.214-0.229-0.363-0.445-0.332c-0.119,0.017-2.941,0.476-5.43,5.481           c-0.097,0.196-0.018,0.433,0.178,0.53C750.267,1200.059,750.327,1200.072,750.387,1200.072z"/>
								</g>
							</g>
						</g>
					</g>
				</g>
			</g>
		</g>
	</g>
	<g>
		<path style="fill:#76C68B;" d="M734.302,773.586c0,6.612,1.303,12.919,3.665,18.677c0.058,0.135,0.113,0.269,0.168,0.404    c0.012,0.029,0.024,0.058,0.036,0.084c2.245,5.307,5.391,10.135,9.249,14.296c0.115,0.123,0.231,0.245,0.346,0.365    c0.123,0.132,0.245,0.26,0.372,0.389c8.946,9.253,21.492,15.007,35.384,15.007c7.593,0,14.784-1.718,21.206-4.788    c1.202-0.575,2.377-1.197,3.521-1.865c0.195-0.113,0.389-0.226,0.582-0.344c0.521-0.313,1.036-0.635,1.545-0.966    c0.175-0.115,0.349-0.231,0.522-0.346c3.545-2.377,6.763-5.204,9.575-8.395c1.021-1.158,1.988-2.363,2.896-3.615    c1.971-2.716,3.675-5.641,5.064-8.734c2.769-6.155,4.309-12.981,4.309-20.17c0-27.183-22.038-49.221-49.221-49.221    C756.337,724.365,734.302,746.403,734.302,773.586z"/>
		<g>
			<g>
				<g>
					<g>
						<path style="fill:#FDBA68;" d="M799.136,750.906c0,0,3.763-8.666-6.154-15.834c-9.917-7.169-11.446,5.127-15.264,6.295        c-3.818,1.168-10.741-0.162-13.246,7.008c-2.505,7.169-1.015,12.403-5.034,13.557c-4.018,1.154-17.14,11.513-13.583,24.891        c3.556,13.378,16.609,12.502,16.609,12.502s51.297,1.59,54.607-11.785c3.309-13.375-1.714-19.088-8.272-23.516        C804.767,761.303,796.706,759.1,799.136,750.906z"/>
					</g>
				</g>
				<g>
					<g>
						<g>
							<g>
								<path style="fill:#FC8759;" d="M793.872,755.141c0,0,4.532,18.191,1.825,22.582c0,0-1.308,2.324-4.931,2.741l1.115,11.549          l-16.298,1.574l-3.659-37.89L793.872,755.141z"/>
							</g>
						</g>
					</g>
					<g>
						<g>
							<g>
								<path style="fill:#FB554B;" d="M789.948,770.146c-0.069,0.007-0.135-0.035-0.156-0.103          c-0.025-0.078,0.019-0.162,0.097-0.187c0.936-0.297,1.426-1.533,1.562-1.934c-1.428-0.594-2.348-1.457-2.734-2.566          c-0.63-1.809,0.382-3.597,0.426-3.672c0.041-0.071,0.132-0.096,0.204-0.055c0.071,0.041,0.096,0.132,0.055,0.204          c-0.01,0.017-0.987,1.749-0.402,3.427c0.369,1.056,1.274,1.876,2.69,2.438l0.125,0.049l-0.036,0.129          c-0.021,0.076-0.53,1.862-1.799,2.265C789.969,770.143,789.958,770.145,789.948,770.146z"/>
							</g>
						</g>
					</g>
					<g>
						<g>
							<g>
								<path style="fill:#FB554B;" d="M791.215,785.109l-0.448-4.646c0,0-7.898,0.296-13.009-2.274          C777.758,778.19,784.904,783.845,791.215,785.109z"/>
							</g>
						</g>
					</g>
					<g>
						<g>
							<g>
								<path style="fill:#2F0E1B;" d="M780.093,763.197c-0.074,0.007-0.151-0.013-0.214-0.063c-0.129-0.102-0.151-0.29-0.049-0.419          c0.034-0.043,3.464-4.303,7.215-1.836c0.138,0.09,0.176,0.276,0.085,0.413c-0.091,0.138-0.276,0.176-0.413,0.085          c-3.293-2.165-6.293,1.548-6.419,1.707C780.246,763.151,780.171,763.189,780.093,763.197z"/>
							</g>
						</g>
					</g>
					<g>
						<g>
							<g>
								<path style="fill:#2F0E1B;" d="M790.352,761.552c-0.083,0.008-0.169-0.019-0.234-0.081          c-0.119-0.113-0.124-0.302-0.011-0.422c0.102-0.107,2.528-2.625,4.343-1.348c0.135,0.095,0.167,0.281,0.073,0.415          c-0.095,0.135-0.281,0.168-0.416,0.073c-1.395-0.979-3.546,1.249-3.567,1.271          C790.488,761.515,790.421,761.545,790.352,761.552z"/>
							</g>
						</g>
					</g>
					<g>
						<g>
							<g>
								<path style="fill:#010103;" d="M793.972,763.526c0.044,0.457-0.29,0.863-0.747,0.907c-0.457,0.044-0.863-0.29-0.907-0.747          c-0.044-0.457,0.291-0.863,0.747-0.907C793.522,762.735,793.928,763.069,793.972,763.526z"/>
							</g>
						</g>
					</g>
					<g>
						<g>
							<g>
								<path style="fill:#010103;" d="M785.736,764.194c0.044,0.457-0.291,0.863-0.747,0.907c-0.457,0.044-0.863-0.29-0.907-0.747          c-0.044-0.457,0.29-0.863,0.747-0.907C785.286,763.403,785.692,763.737,785.736,764.194z"/>
							</g>
						</g>
					</g>
					<g>
						<g>
							<g>
								<path style="fill:#FC8759;" d="M776.468,768.789c0.247,2.561-1.628,4.838-4.19,5.085c-2.561,0.247-4.838-1.629-5.085-4.19          c-0.247-2.561,1.629-4.838,4.19-5.085C773.944,764.352,776.221,766.228,776.468,768.789z"/>
							</g>
						</g>
					</g>
					<g>
						<g>
							<g>
								<path style="fill:#FB554B;" d="M771.764,772.132c-0.974,0.094-1.694-0.574-1.979-1.285c-0.337-0.84-0.127-1.708,0.533-2.213          c0.941-0.718,1.885-0.442,2.41-0.179c-0.247-0.474-0.586-0.806-1.011-0.989c-0.957-0.411-2.043,0.062-2.053,0.067          c-0.076,0.033-0.163-0.001-0.197-0.076c-0.033-0.075,0-0.163,0.076-0.197c0.049-0.022,1.217-0.53,2.292-0.068          c0.622,0.267,1.078,0.801,1.357,1.587l0.179,0.504l-0.414-0.339c-0.05-0.041-1.246-0.997-2.458-0.073          c-0.67,0.511-0.654,1.324-0.437,1.864c0.227,0.567,0.807,1.193,1.696,1.096c0.08-0.01,0.156,0.05,0.165,0.132          c0.009,0.082-0.05,0.156-0.132,0.165C771.782,772.13,771.773,772.131,771.764,772.132z"/>
							</g>
						</g>
					</g>
				</g>
				<g>
					<g>
						<path style="fill:#FC8759;" d="M793.872,755.141c0,0-2.1-7.002-11.726-6.865c-9.626,0.136-10.221,7.421-10.221,7.421        l11.112,1.158l10.127-1.696L793.872,755.141z"/>
					</g>
				</g>
				<g>
					<g>
						<path style="fill:#FDBA68;" d="M793.289,749.094c0,0-5.378,6.389-13.214,5.815c0,0-1.663,9.664-7.282,9.768        c-5.62,0.104-3.843-13.233-3.843-13.233s10.017-5.254,10.677-5.318c0.66-0.064,11.658-1.792,11.658-1.792L793.289,749.094z"/>
					</g>
				</g>
				<g>
					<g>
						<g>
							<g>
								<path style="fill:#FBFDFA;" d="M791.612,772.06c-0.087-0.024-5.658-0.598-5.658-0.598s0.517,2.364,2.587,2.583          C790.612,774.263,791.612,772.06,791.612,772.06z"/>
							</g>
						</g>
					</g>
				</g>
			</g>
			<g>
				<g>
					<path style="fill:#FA2C3C;" d="M745.575,789.841c-2.557,0.521-5.071,1.48-7.439,2.826c0.012,0.029,0.024,0.058,0.036,0.084       c2.245,5.307,5.391,10.135,9.249,14.296c0.115,0.123,0.231,0.245,0.346,0.365c0.123,0.132,0.245,0.26,0.372,0.389       c8.946,9.253,21.492,15.007,35.384,15.007c7.593,0,14.784-1.718,21.206-4.788c1.202-0.575,2.377-1.197,3.521-1.865       c0.195-0.113,0.389-0.226,0.582-0.344c0.521-0.313,1.036-0.635,1.545-0.966c0.175-0.115,0.349-0.231,0.522-0.346       c3.545-2.377,6.763-5.204,9.575-8.395c1.021-1.158,1.988-2.363,2.896-3.615c1.971-2.716,3.675-5.641,5.064-8.734       c-2.432-1.622-7.206-2.829-12.649-3.721c-4.225-0.692-8.854-1.197-13.111-1.557c-4.434-0.38-8.463-0.603-11.203-0.731       c-2.269-0.103-3.653-0.139-3.653-0.139s-5.564,0.026-12.791,0.209c-3.262,0.082-6.864,0.197-10.448,0.351       c-0.012,0-0.019,0.002-0.024,0.002h-0.002c-2.745,0.12-5.475,0.267-8.035,0.442c-3.788,0.262-7.196,0.589-9.705,1.002       c-0.2,0.031-0.392,0.065-0.577,0.098c-0.022,0.003-0.043,0.007-0.062,0.012c-0.151,0.026-0.298,0.053-0.44,0.082       C745.68,789.817,745.628,789.829,745.575,789.841z"/>
				</g>
			</g>
			<g>
				<g>
					<path style="fill:#010103;" d="M737.968,792.264c0.058,0.135,0.113,0.269,0.168,0.404c0.012,0.029,0.024,0.058,0.036,0.084       c0.921-0.483,1.86-0.887,2.81-1.199c1.649-0.541,3.668-1.026,6.05-1.449c2.649-0.469,5.737-0.86,9.251-1.173       c0.144-0.014,0.252-0.142,0.24-0.288c0-0.01-0.002-0.019-0.005-0.029c-0.026-0.132-0.149-0.226-0.284-0.212       c-3.583,0.32-6.732,0.724-9.424,1.207c-0.195,0.034-0.387,0.07-0.574,0.106c-0.022,0.003-0.043,0.007-0.062,0.012       c-0.204,0.036-0.404,0.077-0.599,0.115c-1.824,0.363-3.413,0.767-4.759,1.209C739.854,791.367,738.903,791.773,737.968,792.264       z"/>
				</g>
			</g>
			<g>
				<path style="fill:#FC8759;" d="M802.676,788.477c0,0-18.728,18.669-38.125-0.306      C764.551,788.171,786.719,785.679,802.676,788.477z"/>
			</g>
		</g>
	</g>
	<path style="fill:#5AB3BF;" d="M832.724,1364.134c0,12.921-4.978,24.679-13.118,33.461c-0.115,0.123-0.231,0.245-0.346,0.365   c-0.122,0.132-0.245,0.26-0.372,0.389c-8.946,9.253-21.492,15.007-35.384,15.007c-7.593,0-14.784-1.718-21.206-4.788   c-6.028-2.884-11.378-6.958-15.745-11.917c-1.021-1.158-1.988-2.363-2.896-3.615c-5.896-8.117-9.374-18.103-9.374-28.904   c0-27.183,22.037-49.221,49.221-49.221C810.689,1314.913,832.724,1336.95,832.724,1364.134z"/>
	<g>
		<g>
			<g>
				<g>
					<path style="fill:#F85772;" d="M773.508,1387.087c0,0-0.37,0.704-1.017,1.944c-0.238,0.452-0.512,0.973-0.817,1.56       c-1.043,1.995-2.466,4.718-4.096,7.84c-0.139,0.269-0.281,0.541-0.425,0.817c-1.507,2.886-3.168,6.076-4.855,9.321       c-6.028-2.884-11.378-6.958-15.745-11.917c-1.021-1.158-1.988-2.363-2.896-3.615c0.615-0.599,1.279-1.106,1.995-1.512       c7.27-4.117,20.968-4.48,25.967-4.468C772.808,1387.06,773.508,1387.087,773.508,1387.087z"/>
				</g>
			</g>
		</g>
	</g>
	<g>
		<g>
			<g>
				<g>
					<path style="fill:#F85772;" d="M746.553,1396.653c2.312-3.353,5.172-5.672,8.703-6.162c3.872-0.536,10.037-1.014,16.334-1.404       c0.298-0.019,0.601-0.036,0.901-0.055c8.955-0.541,17.964-0.906,20.826-1.014c0.603-0.024,0.932-0.036,0.932-0.036       s0.082,0.022,0.216,0.055c0.779,0.202,3.353,0.846,2.336,0.375c10.135,1.79,17.344,5.437,22.458,9.549       c-0.122,0.132-0.245,0.26-0.372,0.389c-8.946,9.253-21.492,15.007-35.384,15.007c-7.593,0-14.784-1.718-21.206-4.788       C756.27,1405.685,750.92,1401.611,746.553,1396.653z"/>
				</g>
			</g>
		</g>
	</g>
	<g>
		<g>
			<g>
				<g>
					<g>
						<g>
							<path style="fill:#0D060E;" d="M784.224,1407.591c0.401,0.042,0.81,0.077,1.226,0.106c0.237,0.017,0.444-0.162,0.46-0.4         c0.017-0.237-0.155-0.441-0.4-0.46c-17.868-1.254-21.186-14.335-21.211-14.466c-0.044-0.23-0.264-0.39-0.496-0.349         c-0.231,0.039-0.39,0.249-0.357,0.481C763.466,1392.637,766.764,1405.785,784.224,1407.591z"/>
						</g>
					</g>
				</g>
			</g>
		</g>
	</g>
	<g>
		<g>
			<g>
				<g>
					<g>
						<g>
							<path style="fill:#0D060E;" d="M794.387,1387.503c11.734,1.644,19.776,5.723,25.22,10.092         c-0.115,0.123-0.231,0.245-0.346,0.365c-0.122,0.132-0.245,0.26-0.372,0.389c-5.268-4.208-13.034-8.145-24.342-9.775         c-0.26-0.038-0.522-0.075-0.784-0.111c-0.238-0.034-0.418-0.221-0.445-0.447c-0.007-0.043-0.007-0.089-0.002-0.134         c0.038-0.284,0.3-0.483,0.584-0.447C794.062,1387.457,794.225,1387.479,794.387,1387.503z"/>
						</g>
					</g>
				</g>
			</g>
		</g>
	</g>
	<g>
		<g>
			<g>
				<g>
					<g>
						<g>
							<g>
								<g>
									<path style="fill:#FC8759;" d="M783.189,1400.668L783.189,1400.668c-6.565,0.077-11.857-7.239-11.605-16.043l0.655-12.566           l20.73-0.106l0.972,12.764C794.55,1393.672,789.887,1400.59,783.189,1400.668z"/>
								</g>
							</g>
						</g>
					</g>
				</g>
				<g>
					<g>
						<g>
							<g>
								<g>
									<path style="fill:#FB554B;" d="M771.989,1380.805c3.713,9.004,19.894,8.183,21.534-0.707l-0.554-8.144l-20.73,0.106           L771.989,1380.805z"/>
								</g>
							</g>
						</g>
					</g>
				</g>
				<g>
					<g>
						<g>
							<g>
								<g>
									<g>
										<g>
											<path style="fill:#FC8759;" d="M795.136,1358.598c0.016,3.15,2.583,5.691,5.733,5.675             c3.15-0.016,5.691-2.583,5.675-5.733c-0.016-3.15-2.583-5.691-5.733-5.675             C797.66,1352.88,795.12,1355.447,795.136,1358.598z"/>
										</g>
									</g>
								</g>
							</g>
						</g>
					</g>
					<g>
						<g>
							<g>
								<g>
									<g>
										<g>
											<path style="fill:#FB554B;" d="M801.28,1362.086c1.197-0.006,1.992-0.91,2.251-1.81c0.306-1.065-0.057-2.097-0.924-2.629             c-1.234-0.758-2.351-0.305-2.958,0.08c0.242-0.608,0.614-1.054,1.109-1.329c1.114-0.619,2.496-0.178,2.509-0.173             c0.096,0.031,0.199-0.021,0.23-0.117c0.031-0.096-0.021-0.199-0.117-0.23c-0.063-0.021-1.548-0.495-2.801,0.201             c-0.724,0.402-1.214,1.109-1.456,2.101l-0.156,0.636l0.463-0.464c0.056-0.057,1.394-1.369,2.985-0.393             c0.879,0.539,0.961,1.531,0.764,2.217c-0.207,0.719-0.835,1.552-1.93,1.545c-0.099-0.002-0.183,0.08-0.184,0.181             c-0.001,0.101,0.08,0.183,0.181,0.184C801.257,1362.086,801.269,1362.086,801.28,1362.086z"/>
										</g>
									</g>
								</g>
							</g>
						</g>
					</g>
				</g>
				<path style="fill:#FC8759;" d="M799.337,1354.596c2.403-30.559-45.235-43.309-33.383,9.725      C772.052,1387.248,800.418,1384.396,799.337,1354.596z"/>
				<g>
					<g>
						<g>
							<g>
								<g>
									<g>
										<g>
											<path style="fill:#FC8759;" d="M768.306,1358.735c0.016,3.15-2.525,5.717-5.675,5.733             c-3.15,0.016-5.717-2.525-5.733-5.675c-0.016-3.15,2.525-5.717,5.675-5.733S768.29,1355.584,768.306,1358.735z"/>
										</g>
									</g>
								</g>
							</g>
						</g>
					</g>
					<g>
						<g>
							<g>
								<g>
									<g>
										<g>
											<path style="fill:#FB554B;" d="M762.198,1362.286c-1.197,0.006-2.002-0.889-2.269-1.787             c-0.317-1.062,0.035-2.097,0.897-2.638c1.227-0.77,2.348-0.329,2.958,0.05c-0.248-0.606-0.624-1.048-1.122-1.318             c-1.12-0.607-2.497-0.152-2.511-0.148c-0.096,0.032-0.199-0.019-0.232-0.114c-0.032-0.095,0.019-0.199,0.114-0.232             c0.063-0.021,1.543-0.511,2.803,0.173c0.728,0.395,1.225,1.096,1.478,2.086l0.162,0.635l-0.467-0.459             c-0.057-0.056-1.408-1.355-2.989-0.363c-0.873,0.548-0.945,1.541-0.741,2.224c0.214,0.717,0.851,1.544,1.946,1.526             c0.099-0.003,0.184,0.078,0.186,0.179c0.002,0.101-0.078,0.184-0.179,0.186             C762.221,1362.285,762.209,1362.286,762.198,1362.286z"/>
										</g>
									</g>
								</g>
							</g>
						</g>
					</g>
				</g>
				<g>
					<g>
						<g>
							<g>
								<g>
									<g>
										<path style="fill:#010103;" d="M776.688,1355.061c0.003,0.643-0.515,1.167-1.159,1.171            c-0.643,0.003-1.167-0.516-1.171-1.159c-0.003-0.643,0.515-1.167,1.159-1.17            C776.161,1353.899,776.685,1354.418,776.688,1355.061z"/>
									</g>
								</g>
							</g>
						</g>
					</g>
				</g>
				<g>
					<g>
						<g>
							<g>
								<g>
									<g>
										<path style="fill:#010103;" d="M788.703,1355.226c0.003,0.643,0.527,1.162,1.17,1.159            c0.643-0.003,1.162-0.527,1.159-1.171c-0.003-0.643-0.527-1.162-1.17-1.158            C789.219,1354.059,788.7,1354.583,788.703,1355.226z"/>
									</g>
								</g>
							</g>
						</g>
					</g>
				</g>
				<g>
					<g>
						<g>
							<g>
								<g>
									<g>
										<path style="fill:#2D0F28;" d="M794.664,1353.177c-0.217,0.001-0.435-0.072-0.614-0.222            c-2.737-2.299-6.681-0.996-6.721-0.983c-0.495,0.168-1.034-0.096-1.203-0.59c-0.17-0.494,0.092-1.032,0.586-1.203            c0.202-0.071,4.987-1.675,8.557,1.323c0.401,0.337,0.453,0.935,0.117,1.336            C795.199,1353.06,794.933,1353.175,794.664,1353.177z"/>
									</g>
								</g>
							</g>
						</g>
					</g>
				</g>
				<g>
					<g>
						<g>
							<g>
								<g>
									<g>
										<path style="fill:#2D0F28;" d="M770.921,1353.207c-0.276,0.002-0.551-0.117-0.74-0.348            c-0.331-0.406-0.271-1.003,0.135-1.334c3.612-2.947,8.373-1.276,8.574-1.204c0.492,0.178,0.747,0.722,0.57,1.214            c-0.178,0.492-0.722,0.747-1.212,0.57l0,0c-0.039-0.014-3.964-1.371-6.733,0.889            C771.34,1353.136,771.13,1353.206,770.921,1353.207z"/>
									</g>
								</g>
							</g>
						</g>
					</g>
				</g>
				<g>
					<g>
						<g>
							<g>
								<g>
									<g>
										<path style="fill:#FBFDFA;" d="M779.404,1367.383c0.11-0.022,7.055-0.209,7.055-0.209s-0.862,2.876-3.443,2.953            C780.434,1370.203,779.404,1367.383,779.404,1367.383z"/>
									</g>
								</g>
							</g>
						</g>
					</g>
				</g>
			</g>
		</g>
		<g>
			<g>
				<g>
					<path style="fill:#2D0F28;" d="M799.419,1331.812c-3.966-7.211-30.273-10.567-35.953-0.255       c-1.223,2.219-1.028,20.274-0.104,21.76c0.924,1.486,2.989,2.103,2.989,2.103s0.167-14.671,1.029-16.6       c0.862-1.929,5.877-5.853,9.598-2.616c1.946,1.693,3.356,1.946,4.263,1.806c0.872,0.268,2.392,0.213,4.619-1.686       c3.753-3.2,8.729,0.774,9.572,2.711c0.842,1.937,0.864,16.609,0.864,16.609s2.071-0.596,3.01-2.073       C800.245,1352.094,800.64,1334.031,799.419,1331.812z"/>
				</g>
			</g>
		</g>
		<g>
			<g>
				<g>
					<g>
						<g>
							<g>
								<path style="fill:#FB554B;" d="M785.256,1362.021c0.073-0.006,0.138-0.058,0.156-0.133c0.023-0.094-0.035-0.189-0.129-0.212          l-3.596-0.878l0.448-8.333c0.005-0.097-0.069-0.179-0.166-0.184c-0.098-0.008-0.179,0.069-0.185,0.166l-0.463,8.623          l3.878,0.947C785.219,1362.021,785.238,1362.023,785.256,1362.021z"/>
							</g>
						</g>
					</g>
				</g>
			</g>
		</g>
		<path style="fill:#2D0F28;" d="M790.931,1367.679c-0.042-2.235-1.51-4.236-3.667-4.822c-2.039-0.554-4.521-0.482-6.682-0.299    c-9.072-0.423-5.833,17.573,0.681,18.384C791.113,1382.264,791.054,1374.148,790.931,1367.679z M778.013,1366.35    c0.658-1.313,6.266-1.726,9.125-0.769c0.829,0.277,1.415,1.029,1.466,1.901c0.2,3.42-1.95,10.191-4.581,4.038l-1.789,0.058    C779.818,1379.875,776.585,1368.458,778.013,1366.35z"/>
	</g>
	<g>
		<g>
			<path style="fill:#D5EFF4;" d="M1158.815,584.773H703.977c-11.458,0-20.747,9.289-20.747,20.747v49.722h496.332V605.52     C1179.562,594.062,1170.273,584.773,1158.815,584.773z"/>
		</g>
	</g>
	<g>
		<g>
			<g>
				<path style="fill:#0D060E;" d="M1149.641,564.221H713.15c-28.093,0-50.866,22.774-50.866,50.866v936.312      c0,28.093,22.774,50.866,50.866,50.866h436.491c28.093,0,50.866-22.774,50.866-50.866V615.087      C1200.507,586.995,1177.734,564.221,1149.641,564.221z M1179.562,1542.385c0,15.261-12.371,27.632-27.632,27.632H710.862      c-15.261,0-27.632-12.371-27.632-27.632V615.601c0-17.026,13.802-30.828,30.828-30.828h434.676      c17.026,0,30.828,13.802,30.828,30.828V1542.385z"/>
			</g>
		</g>
	</g>
	<g>
		<g>
			<circle style="fill:#5AB3BF;" cx="716.113" cy="620.397" r="6.851"/>
		</g>
	</g>
	<g>
		<g>
			<circle style="fill:#5AB3BF;" cx="737.307" cy="620.397" r="6.851"/>
		</g>
	</g>
	<g>
		<g>
			<circle style="fill:#5AB3BF;" cx="758.502" cy="620.397" r="6.851"/>
		</g>
	</g>
	<g>
		<g>
			<g>
				<path style="fill:#5AB3BF;" d="M1089.706,608.065v4.888h-2.766v8.392h2.766v5.902h53.857v-19.182H1089.706z M1141.718,625.68      h-50.168v-16.046h50.168V625.68z"/>
			</g>
		</g>
		<g>
			<g>
				<rect x="1133.343" y="612.133" style="fill:#5AB3BF;" width="5.321" height="10.966"/>
			</g>
		</g>
		<g>
			<g>
				<rect x="1124.419" y="612.133" style="fill:#5AB3BF;" width="5.321" height="10.966"/>
			</g>
		</g>
		<g>
			<g>
				<rect x="1115.251" y="612.133" style="fill:#5AB3BF;" width="5.321" height="10.966"/>
			</g>
		</g>
	</g>
	<g>
		<path style="fill:#FE9F73;" d="M662.25,1144.761v325.051l-247.039,28.604c0,0,5.297-232.496,27.352-269.672    c22.055-37.176,71.463-107.387,87.066-148.994c15.602-41.607,67.611-65.01,109.217-98.816    c41.607-33.805,33.805-96.215,72.812-83.213c39.006,13.002,67.611,96.215,26.004,150.824    C696.055,1103.155,662.25,1144.761,662.25,1144.761z"/>
	</g>
	<g>
		<path style="fill:#010103;" d="M415.212,1511.512c-0.024,0-0.047,0-0.071-0.001c-1.306-0.039-2.333-1.128-2.295-2.434    c0.029-0.988,2.988-99.807,9.906-188.407c6.098-78.097,17.622-95.313,36.714-123.836c2.943-4.396,5.986-8.942,9.236-14.056    c12.408-19.524,24.498-42.603,36.19-64.922c10.87-20.75,21.138-40.349,30.289-54.306c18.804-28.675,91.675-75.067,94.768-77.028    c1.104-0.699,2.565-0.372,3.265,0.731c0.7,1.104,0.372,2.565-0.731,3.265c-0.749,0.475-75.099,47.803-93.344,75.627    c-9.024,13.763-19.24,33.262-30.055,53.906c-11.738,22.405-23.874,45.573-36.388,65.264c-3.28,5.162-6.339,9.731-9.297,14.151    c-18.663,27.88-29.927,44.709-35.929,121.571c-6.909,88.487-9.864,187.192-9.893,188.178    C417.537,1510.499,416.486,1511.512,415.212,1511.512z"/>
	</g>
	<g>
		<path style="fill:#010103;" d="M662.248,1146.89c-0.519,0-1.042-0.17-1.479-0.52c-1.019-0.817-1.183-2.306-0.366-3.325    l31.59-39.391c66.642-71.047,63.796-117.218,63.76-117.676c-2.247-38.641-15.151-60.517-25.582-72.075    c-11.259-12.475-22.141-15.949-22.249-15.982c-1.246-0.386-1.948-1.708-1.565-2.955c0.383-1.247,1.699-1.949,2.947-1.57    c0.486,0.148,12.025,3.769,24.142,17.076c11.04,12.124,24.691,35.008,27.026,75.173c0.161,1.882,3.267,48.405-64.965,121.177    l-31.412,39.18C663.628,1146.587,662.941,1146.89,662.248,1146.89z"/>
	</g>
	<g>
		<path style="fill:#FB554B;" d="M715.433,914.217c-8.759-5.764-17.471-10.273-25.657-13.811    c-14.482,12.056-18.769,46.206-41.481,71.493c0.003,0.001,0.014,0.005,0.014,0.005s14.887,7.973,30.027,7.973    c15.14,0,20.261-5.734,20.261-5.734l0,0l21.078-38.827C723.765,927.781,721.931,918.494,715.433,914.217z"/>
	</g>
	<g>
		<path style="fill:#FCB6A9;" d="M713.245,918.698c4.352,2.864,8.097,10.295,6.932,15.632l0.785-1.446    c3.437-6.331,0.004-16.027-5.456-19.62c-8.723-5.74-17.391-10.002-25.33-13.175c-1.601,1.272-3.08,2.806-4.469,4.571    C694.231,907.909,703.706,912.421,713.245,918.698z"/>
	</g>
	<g>
		<g>
			<g>
				<path style="fill:#010103;" d="M489.339,1523.435c-0.742,0-1.463-0.38-1.869-1.064c-13.629-22.997-11.33-65.524-11.225-67.323      c0.07-1.196,1.095-2.1,2.292-2.04c1.196,0.069,2.11,1.095,2.04,2.291c-0.025,0.428-2.324,43.006,10.627,64.86      c0.611,1.031,0.27,2.362-0.761,2.972C490.096,1523.338,489.715,1523.435,489.339,1523.435z"/>
			</g>
		</g>
		<g>
			<g>
				<path style="fill:#010103;" d="M516.06,1536.995c-0.58,0-1.157-0.23-1.585-0.686c-18.27-19.517-25.199-61.538-25.486-63.316      c-0.19-1.184,0.614-2.297,1.797-2.486c1.186-0.195,2.297,0.614,2.487,1.797c0.068,0.422,7.009,42.494,24.37,61.039      c0.818,0.876,0.773,2.249-0.102,3.066C517.123,1536.801,516.591,1536.995,516.06,1536.995z"/>
			</g>
		</g>
	</g>
	<g>
		<path style="fill:#010103;" d="M604.999,1085.857c-0.451,0-0.906-0.128-1.31-0.397c-19.299-12.866-46.285-19.475-46.555-19.54    c-1.27-0.306-2.051-1.585-1.745-2.854c0.307-1.27,1.589-2.052,2.854-1.745c1.137,0.274,28.079,6.876,48.07,20.203    c1.087,0.725,1.381,2.194,0.656,3.281C606.514,1085.487,605.764,1085.857,604.999,1085.857z"/>
	</g>
	<g>
		<path style="fill:#010103;" d="M590.805,1101.943c-0.451,0-0.906-0.128-1.31-0.397c-19.299-12.866-46.285-19.475-46.555-19.54    c-1.27-0.307-2.052-1.585-1.745-2.855c0.306-1.269,1.589-2.045,2.854-1.745c1.137,0.275,28.079,6.876,48.07,20.203    c1.087,0.724,1.381,2.194,0.656,3.281C592.32,1101.574,591.57,1101.943,590.805,1101.943z"/>
	</g>
	<path style="opacity:0.5;fill:none;" d="M1113.363,1493.147H749.428c-9.724,0-17.606,7.882-17.606,17.606   c0,9.724,7.882,17.606,17.606,17.606h363.935c9.724,0,17.606-7.882,17.606-17.606   C1130.969,1501.03,1123.087,1493.147,1113.363,1493.147z"/>
	<circle style="fill:none;" cx="1110.792" cy="839.463" r="29.361"/>
	<g>
		<path style="fill:#5AB3BF;" d="M1105.336,854.421l-11.074-15.4c-0.524-0.729-0.358-1.745,0.371-2.269    c0.729-0.524,1.745-0.358,2.269,0.371l8.553,11.894l21.382-27.125c0.556-0.705,1.578-0.826,2.283-0.27    c0.705,0.556,0.826,1.578,0.27,2.283L1105.336,854.421z"/>
	</g>
	<g>
		<path style="fill:#5AB3BF;" d="M1105.336,1247.678l-11.074-15.4c-0.524-0.729-0.358-1.745,0.371-2.269    c0.729-0.524,1.745-0.358,2.269,0.371l8.553,11.894l21.382-27.125c0.556-0.705,1.578-0.826,2.283-0.27    c0.705,0.556,0.826,1.578,0.27,2.283L1105.336,1247.678z"/>
	</g>
	<g>
		<g>
			<g>
				<g>
					<g>
						<g>
							<path style="fill:none;" d="M1488.47,835.047c-24.751-1.418-82.775-3.891-133.217,0.363         c-20.869,1.76-38.887-14.911-38.418-35.848c0.192-8.57,3.266-18.539,11.22-29.835c30.626-43.496,83.863-1.957,83.352,20.122         c0,0,10.762-33.246,43.451-27.426c32.689,5.82,21.129,54.172,21.129,54.172s10.548-2.229,17.861,2.763         C1501.038,824.265,1497.162,835.545,1488.47,835.047z"/>
						</g>
					</g>
				</g>
			</g>
		</g>
	</g>
	<g>
		<g>
			<g>
				<g>
					<g>
						<g>
							<path style="fill:none;" d="M1675.859,653.017c-24.899-1.314-110.226-4.912-168.575,3.738         c-7.569,1.122-12.389-7.949-7.153-13.528c3.062-3.263,8.286-5.921,17.072-6.536c0,0-3.026-54.472,38.121-58.081         c47.191-4.138,47.762,49.378,47.762,49.378s21.449-20.362,36.919,5.454c0,0,26.735-15.452,40.22,13.088         C1681.695,649.642,1679.297,653.199,1675.859,653.017z"/>
						</g>
					</g>
				</g>
			</g>
		</g>
	</g>
	<g>
		<g>
			<path style="fill:#FE9F73;" d="M1758.143,1720.588c-0.074,1.542-0.168,3.128-0.295,4.747     c-1.22,16.103-4.956,34.938-15.056,44.983l-7.722,5.276c-0.01,0-0.021,0.011-0.031,0.011l-3.241,2.203     c-0.01,0-0.01,0.011-0.01,0.022l-188.358,128.395c0,0-0.01,0-0.01,0.011c-40.538,27.624-92.207-9.142-114.732-28.439     c-0.052-0.033-0.095-0.077-0.137-0.121c-3.64-3.393-7.375-6.829-11.184-10.321c-0.021-0.022-0.031-0.033-0.031-0.033     c-46.882-43-105.105-93.403-143.76-116.28c-49.091-29.045-120.803-103.481-167.4-155.678c-1.115-1.255-2.22-2.5-3.314-3.734     c-3.735-4.197-7.281-8.239-10.626-12.072c-1.126-1.289-2.22-2.555-3.293-3.8c-14.687-16.94-24.903-29.464-28.123-33.947     c-4.966-6.939-20.8-24.915-38.381-44.388c-19.138-21.192-40.348-44.157-51.869-56.581c-1.252-1.355-2.388-2.588-3.398-3.679     c-0.189-0.199-0.368-0.386-0.537-0.573c-2.956-3.183-4.661-5.012-4.661-5.012c-11.826-37.119,45.125-73.114,94.553-52.869     c49.428,20.245,139.678,102.368,139.678,102.368s-196.796-435.269-212.746-469.083c-20.421-43.298,1.904-83.798,44.052-77.619     c25.661,3.767,126.789,177.454,126.789,177.454l91.985,159.643l1.505,2.621c17.191-70.867,91.323-64.115,91.323-64.115     c38.686-29.255,93.49-22.502,93.49-22.502s13.962-13.493,77.361-15.751c63.389-2.247,104.222,206.983,120.34,246.349     C1643.221,1449.633,1725.832,1644.456,1758.143,1720.588z"/>
		</g>
		<g>
			<g>
				<g>
					<path d="M1114.905,1552.028c-0.116,0.462-0.368,0.881-0.737,1.223c-8.659,7.842-16.329,17.976-21.936,26.313       c-1.126-1.289-2.22-2.555-3.293-3.8c5.692-8.371,13.362-18.35,22.115-26.281c1-0.903,2.493-0.793,3.356,0.243       C1114.957,1550.387,1115.115,1551.246,1114.905,1552.028z"/>
				</g>
			</g>
			<g>
				<g>
					<path d="M1126.72,1570.951c-0.126,0.452-0.368,0.881-0.736,1.212c-7.596,6.895-14.456,15.564-19.811,23.207       c-1.115-1.256-2.22-2.5-3.314-3.734c5.408-7.666,12.288-16.246,20-23.24c0.999-0.892,2.504-0.782,3.367,0.253       C1126.762,1569.309,1126.92,1570.169,1126.72,1570.951z"/>
				</g>
			</g>
		</g>
		<g>
			<g>
				<g>
					<path style="fill:#F07162;" d="M958.141,1450.739c0.032,0.077,0.074,0.154,0.126,0.231c-0.053-0.077-0.095-0.143-0.137-0.22       C958.13,1450.75,958.13,1450.739,958.141,1450.739z"/>
				</g>
				<g>
					<path style="fill:#FB554B;" d="M1027.586,1471.534c-1.378,9.406-5.724,18.229-8.732,23.461       c-19.138-21.192-36.767-41.723-48.287-54.147c-1.252-1.355-2.388-2.589-3.398-3.679c2.346-3.194,4.892-6.399,7.628-9.583       c4.724-5.485,13.13-6.113,19.527-1.663c0.316,0.209,0.621,0.429,0.915,0.672l29.876,24.144       C1025.114,1450.739,1029.764,1456.643,1027.586,1471.534z"/>
				</g>
			</g>
			<g>
				<g>
					<path style="fill:#FDC9BC;" d="M994.386,1425.946c-0.021-0.011-0.042-0.022-0.063-0.022c-4.85-1.906-12.32,0.661-15.624,4.494       c-2.977,3.469-5.681,6.961-8.133,10.431c-1.252-1.355-2.388-2.589-3.398-3.679c-0.189-0.198-0.368-0.385-0.537-0.573       c2.22-3.073,4.64-6.157,7.28-9.219c4.166-4.836,13.772-6.752,19.222-2.423L994.386,1425.946z"/>
				</g>
			</g>
		</g>
		<g>
			<g>
				<path style="fill:#FB554B;" d="M1032.264,948.604c-2.404-4.319-7.921-5.862-12.578-3.35l-29.247,15.78      c-4.897,2.642-6.829,8.356-4.501,12.905l-0.024,0.013l0.254,0.435l22.357,38.227l0.223,0.381l0.022-0.013      c2.454,3.673,7.775,4.55,12.147,1.97l26.165-15.443c4.175-2.464,6.08-7.486,4.414-11.466l0.021-0.012l-0.188-0.386      l-18.828-38.616l-0.214-0.438L1032.264,948.604z"/>
			</g>
			<g>
				<path style="fill:#FDC9BC;" d="M1032.264,948.604c-2.404-4.319-7.921-5.862-12.578-3.35l-29.247,15.78      c-4.897,2.642-6.829,8.357-4.501,12.906l-0.024,0.013l0.254,0.435l2.05,3.505l0.024-0.013      c-2.297-4.491-0.371-10.156,4.486-12.794l29.013-15.762c4.62-2.51,10.086-1.01,12.46,3.253l0.022-0.012l-1.723-3.534      l-0.214-0.438L1032.264,948.604z"/>
			</g>
		</g>
		<g>
			<g>
				<g>
					<g>
						<path d="M1417.338,1790.245c0.055,0.861,0.53,1.67,1.319,2.088c26.525,14.041,73.532,8.065,75.521,7.804        c1.322-0.174,2.249-1.434,2.093-2.82c-0.166-1.383-1.371-2.365-2.693-2.192c-0.473,0.062-47.538,6.042-72.743-7.3        c-1.189-0.629-2.64-0.13-3.24,1.114C1417.39,1789.358,1417.31,1789.809,1417.338,1790.245z"/>
					</g>
				</g>
			</g>
			<g>
				<g>
					<g>
						<path d="M1400.311,1760.265c0.043,0.673,0.341,1.326,0.879,1.787c23.009,19.702,70.14,24.483,72.134,24.677        c1.327,0.129,2.502-0.892,2.624-2.281c0.128-1.392-0.852-2.62-2.178-2.748c-0.474-0.046-47.662-4.837-69.525-23.558        c-1.032-0.883-2.552-0.723-3.394,0.357C1400.447,1759.015,1400.271,1759.648,1400.311,1760.265z"/>
					</g>
				</g>
			</g>
		</g>
		<g>
			<path d="M1059.132,1543.138c-4.246-5.934-17.108-20.804-38.226-44.195c-19.352-21.43-40.792-44.635-51.849-56.561l-3.399-3.68     c-0.181-0.186-0.375-0.391-0.558-0.594c-2.931-3.157-4.635-4.984-4.636-4.985l-0.337-0.361l-0.153-0.48     c-4.382-13.754-0.012-28.489,11.987-40.428c17.74-17.65,52.744-28.539,85.328-15.19c41.456,16.979,110.029,75.911,132.801,96.056     c-28.677-63.415-194.065-429.085-208.522-459.743c-10.836-22.98-10.527-46.521,0.827-62.973     c9.741-14.117,26.289-20.61,45.403-17.804l-0.584,4.363c-17.517-2.562-32.609,3.272-41.408,16.021     c-10.424,15.106-10.599,36.953-0.465,58.442c15.771,33.445,210.794,464.763,212.762,469.117l4.296,9.5l-7.577-6.895     c-0.9-0.82-90.543-82.107-139.064-101.98c-30.946-12.675-64.12-2.408-80.897,14.281c-10.784,10.729-14.692,23.27-11.04,35.367     c0.637,0.684,2.137,2.297,4.32,4.648c0.176,0.195,0.339,0.365,0.512,0.545l3.426,3.709c11.063,11.93,32.517,35.151,51.885,56.6     c21.229,23.514,34.194,38.513,38.536,44.581L1059.132,1543.138z"/>
		</g>
		<polygon style="fill:#F07162;" points="1248.343,1273.312 1275.563,1317.182 1254.827,1255.661   "/>
		<polygon style="fill:#F07162;" points="1339.707,1212.251 1380.684,1282.863 1349.703,1203.382 1339.854,1209.756   "/>
		<polygon style="fill:#F07162;" points="1432.196,1189.435 1472.285,1255.661 1442.467,1183.415   "/>
		<g>
			<path d="M1758.322,1715.609c-0.032,1.597-0.095,3.26-0.179,4.979c-0.074,1.542-0.168,3.128-0.295,4.747     c-31.079-73.246-116.426-274.48-129.483-306.389c-3.588-8.745-8.28-25.466-14.235-46.635     c-10.384-36.954-24.619-87.565-42.295-128.318c-20.18-46.503-40.664-70.074-60.885-70.074c-0.305,0-0.61,0-0.915,0.011     c-37.118,1.322-57.119,6.565-67.135,10.519c-6.533,2.588-8.827,4.615-8.89,4.67l-0.705,0.65l-0.947-0.099c0,0-0.01,0-0.021,0     c-1.263-0.154-45.84-5.089-81.938,15.497c-3.44,1.949-6.807,4.152-10.058,6.609l-0.631,0.473l-0.779-0.066     c-0.189-0.022-18.464-1.564-38.507,5.419c-21.031,7.325-36.066,20.818-44.872,40.225c-2.357,5.188-4.261,10.794-5.724,16.819     l-0.789-0.209l-1.252-0.342l-2.041-0.54c0.168-0.705,0.347-1.399,0.536-2.082c9.511-36.083,33.941-51.503,52.953-58.101     c18.696-6.476,35.435-5.882,39.265-5.639c36.645-27.25,86.083-23.307,93.479-22.536c3.777-2.842,21.705-13.669,77.909-15.663     c0.358-0.022,0.726-0.022,1.084-0.022c50.543,0,85.967,126.038,107.199,201.553c5.913,21.027,10.574,37.636,14.067,46.15     C1644.841,1448.014,1724.875,1636.757,1758.322,1715.609z"/>
		</g>
	</g>
	<g>
		<g>
			<g>
				<g>
					<g>
						<g>
							<g>
								<g>
									<path style="fill:#6095AB;" d="M1315.373,1108.816c4.435,1.876,8.998,3.666,13.561,5.316l1.246,0.451l-0.902,2.492           l-1.246-0.451c-4.607-1.667-9.214-3.473-13.691-5.368l-1.221-0.516l1.033-2.441L1315.373,1108.816z M1342.754,1118.717           c4.678,1.412,9.404,2.693,14.045,3.807l1.288,0.309l-0.619,2.577l-1.288-0.309c-4.69-1.126-9.465-2.42-14.192-3.848           l-1.269-0.382l0.766-2.537L1342.754,1118.717z M1449.944,965.056l0.942-0.932l1.864,1.884l-0.942,0.932           c-1.826,1.807-3.429,3.879-4.764,6.158c-0.001,0.002-0.003,0.004-0.004,0.007c-1.016,1.734-1.898,3.624-2.622,5.618           l-0.452,1.245l-2.491-0.904l0.452-1.245c0.778-2.143,1.729-4.181,2.826-6.053c0.001-0.002,0.003-0.004,0.004-0.007           C1446.209,969.281,1447.955,967.025,1449.944,965.056z M1441.912,991.183l0.084,1.323c0.279,4.344,2.153,8.47,5.57,12.261           l0.887,0.984l-1.969,1.774l-0.887-0.984c-3.827-4.245-5.928-8.91-6.246-13.865l-0.084-1.323L1441.912,991.183z            M1462.813,957.205c4.513-1.545,9.5-2.308,14.822-2.267l1.325,0.011l-0.02,2.65l-1.325-0.01           c-5.024-0.039-9.715,0.676-13.943,2.123l-1.254,0.429l-0.858-2.508L1462.813,957.205z M1371.037,1125.481           c4.849,0.846,9.691,1.519,14.393,2.003l1.318,0.136l-0.271,2.637l-1.318-0.136c-4.763-0.491-9.668-1.173-14.577-2.029           l-1.306-0.228l0.455-2.61L1371.037,1125.481z M1458.89,1013.088c3.978,2.015,8.496,3.665,13.429,4.905l1.285,0.322           l-0.646,2.57l-1.285-0.322c-5.124-1.287-9.827-3.007-13.98-5.111l-1.182-0.599l1.197-2.364L1458.89,1013.088z            M1492.409,956.984c4.731,1.246,9.405,3.036,13.894,5.317l1.181,0.6l-1.201,2.362l-1.181-0.6           c-4.321-2.196-8.819-3.918-13.368-5.117l-1.282-0.337l0.676-2.563L1492.409,956.984z M1399.916,1128.423           c4.907,0.122,9.786,0.036,14.502-0.257l1.322-0.082l0.164,2.645l-1.323,0.082c-4.792,0.297-9.748,0.385-14.73,0.261           l-1.325-0.033l0.067-2.65L1399.916,1128.423z M1486.521,1020.308c4.664,0.388,9.519,0.454,14.43,0.198l1.323-0.069           l0.139,2.646l-1.323,0.069c-5.03,0.263-10.006,0.195-14.788-0.203l-1.321-0.109l0.22-2.641L1486.521,1020.308z            M1517.765,969.538l1.031,0.832c1.525,1.231,3,2.528,4.385,3.854c2.215,2.119,4.242,4.413,6.027,6.818l0.79,1.064           l-2.128,1.579l-0.79-1.064c-1.696-2.285-3.625-4.465-5.731-6.482c-1.332-1.275-2.751-2.521-4.217-3.704l-1.031-0.833           L1517.765,969.538z M1428.816,1126.582c4.809-0.769,9.569-1.789,14.147-3.029l1.279-0.347l0.693,2.558l-1.279,0.346           c-4.668,1.266-9.521,2.304-14.423,3.089l-1.308,0.209l-0.419-2.617L1428.816,1126.582z M1515.309,1018.865           c4.683-0.819,9.422-1.924,14.086-3.289l1.272-0.372l0.744,2.544l-1.272,0.372c-4.758,1.391-9.594,2.521-14.374,3.355           l-1.306,0.228l-0.456-2.611L1515.309,1018.865z M1456.682,1118.989c4.478-1.78,8.88-3.837,13.086-6.115l1.165-0.631           l1.263,2.329l-1.165,0.631c-4.298,2.328-8.796,4.431-13.37,6.249l-1.231,0.489l-0.979-2.463L1456.682,1118.989z            M1535.849,992.939l0.458,1.243c1.678,4.558,2.771,9.456,3.25,14.557l0.123,1.32l-2.638,0.247l-0.124-1.319           c-0.457-4.873-1.5-9.547-3.099-13.889l-0.458-1.243L1535.849,992.939z M1482.051,1105.252           c3.94-2.761,7.789-5.749,11.443-8.884l1.005-0.863l1.725,2.012l-1.006,0.862c-3.718,3.19-7.637,6.232-11.647,9.043           l-1.084,0.76l-1.521-2.17L1482.051,1105.252z M1543.052,1010.781c4.41-1.811,8.818-3.886,13.101-6.167l1.17-0.623           l1.246,2.339l-1.171,0.624c-4.36,2.322-8.848,4.435-13.339,6.28l-1.226,0.503l-1.007-2.451L1543.052,1010.781z            M1539.467,1022.294l-0.157,1.316c-0.567,4.734-1.595,9.614-3.057,14.509l-0.38,1.27l-2.539-0.758l0.379-1.27           c1.419-4.749,2.417-9.482,2.965-14.065l0.158-1.316L1539.467,1022.294z M1504.015,1086.408           c3.355-3.506,6.541-7.191,9.472-10.955l0.815-1.047l2.091,1.628l-0.814,1.045c-2.985,3.835-6.232,7.59-9.649,11.16           l-0.916,0.957l-1.914-1.832L1504.015,1086.408z M1531.556,1050.747l-0.554,1.204c-2.009,4.366-4.364,8.754-6.995,13.013           l-0.695,1.128l-2.255-1.392l0.695-1.127c2.578-4.179,4.88-8.462,6.843-12.73l0.554-1.204L1531.556,1050.747z            M1568.554,997.169c3.89-2.666,7.716-5.663,11.373-8.907l0.991-0.88l1.759,1.982l-0.991,0.879           c-3.739,3.318-7.653,6.383-11.633,9.111l-1.094,0.75l-1.497-2.186L1568.554,997.169z M1638.292,887.347l-0.339,1.28           c-1.246,4.714-2.629,9.459-4.112,14.104l-0.403,1.262l-2.525-0.807l0.403-1.262c1.469-4.603,2.84-9.304,4.074-13.974           l0.339-1.282L1638.292,887.347z M1629.479,915.367l-0.468,1.239c-1.753,4.636-3.632,9.21-5.583,13.595l-0.539,1.211           l-2.421-1.078l0.538-1.21c1.931-4.341,3.79-8.867,5.525-13.455l0.469-1.24L1629.479,915.367z M1590.188,978.063           c3.147-3.486,6.233-7.261,9.17-11.22l0.79-1.064l2.128,1.579l-0.789,1.064c-2.987,4.026-6.126,7.868-9.331,11.417           l-0.888,0.984l-1.967-1.776L1590.188,978.063z M1617.648,942.27l-0.614,1.173c-2.307,4.407-4.719,8.647-7.285,12.786           l-0.698,1.127l-2.252-1.396l0.698-1.126c2.533-4.091,4.912-8.272,7.189-12.62l0.615-1.174L1617.648,942.27z"/>
								</g>
							</g>
						</g>
					</g>
				</g>
			</g>
		</g>
		<g>
			<g>
				<g>
					<g>
						<g>
							<g>
								<path style="fill:#F99A35;" d="M1651.152,873.13l-7.085-23.649c0,0,35.525-72.819,35.645-74.075          c0.12-1.256,4.596-47.366,4.596-47.366l-30.281,42.426l-34.965,78.503L1651.152,873.13z"/>
							</g>
						</g>
					</g>
				</g>
			</g>
			<g>
				<g>
					<g>
						<g>
							<g>
								<polygon style="fill:#FEC369;" points="1573.561,843.095 1684.307,728.039 1619.06,848.967         "/>
							</g>
						</g>
					</g>
				</g>
			</g>
			<g>
				<g>
					<g>
						<g>
							<g>
								<polygon style="fill:#FEC369;" points="1644.066,849.48 1692.351,855.992 1684.307,728.039         "/>
							</g>
						</g>
					</g>
				</g>
			</g>
		</g>
	</g>
</g>
</svg>
